<svg xmlns="http://www.w3.org/2000/svg" viewBox="0 0 489.83 117.86"><defs><style>.cls-1{font-size:99.18px;fill:#1a2848;font-family:TitilliumWeb-SemiBold, Titillium Web;font-weight:600;}.cls-2{letter-spacing:-0.03em;}.cls-3{letter-spacing:-0.01em;}.cls-4{fill:#ff8135;}.cls-5{fill:#a84c14;}.cls-6{fill:#00ddc5;}.cls-7{fill:#00afc5;}.cls-8{fill:#284cf9;}.cls-9{fill:#2825f9;}</style></defs><g id="Layer_2" data-name="Layer 2"><g id="Layer_1-2" data-name="Layer 1"><text class="cls-1" transform="translate(110.77 88.11)"><tspan class="cls-2">V</tspan><tspan x="55.94" y="0">eriD</tspan><tspan class="cls-3" x="229.6" y="0">e</tspan><tspan x="279.29" y="0">v</tspan></text><path class="cls-4" d="M83.74,60a5.1,5.1,0,0,1-1.61,2.1L65.65,75.2l-.05,0-35,27.83h0a19.33,19.33,0,0,1-3.22,2,18.91,18.91,0,0,1-16.9-33.84l.36-.16,3.39,16a5,5,0,0,0,9.8,0l3.35-15.86,1.08-5.08,22.42-5.85,5.82-1.51,17.81-4.65,3.26-.85A5,5,0,0,1,83.74,60Z"/><path class="cls-5" d="M23.42,88.7,12.53,106S-5.6,98.11,2.07,79.59c0,0,4.76-11.44,23.57-12.37Z"/><path class="cls-6" d="M16.15,22.7A5.46,5.46,0,0,0,17,23.9L27.92,35.65l5.68,6.11L28.44,66.17l-1.07,5.08L24,87.12a5.58,5.58,0,0,1-.59,1.58,5,5,0,0,1-9.21-1.58l-3.39-16L.58,22.7h0A18.91,18.91,0,1,1,38,18.9a18.6,18.6,0,0,1-.32,3.45L22.65,15.89A5,5,0,0,0,16.15,22.7Z"/><polygon class="cls-7" points="16.15 22.7 23.88 87.63 34.99 35.72 16.15 22.7"/><path class="cls-8" d="M91,70.08A18.78,18.78,0,0,1,77.25,78a18.57,18.57,0,0,1-6.78-.62c-.3-.08-.6-.18-.91-.28l-.83-.31a18.27,18.27,0,0,1-3.13-1.56l.05,0L82.13,62.08A5.1,5.1,0,0,0,83.74,60a5,5,0,0,0-6-6.67l-3.26.85L56.68,58.81l-5.82,1.51L33.59,41.76l-5.67-6.12L17,23.9a4.82,4.82,0,0,1-.85-1.2,5,5,0,0,1,6.49-6.81l15.07,6.46,45.44,19.5h0a19.92,19.92,0,0,1,3.32,1.87A18.89,18.89,0,0,1,91,70.08Z"/><path class="cls-9" d="M83.74,60,77.25,78l0,.09a18.2,18.2,0,0,1-6.76-.71c-.3-.08-.6-.18-.91-.28l-.83-.31a18.18,18.18,0,0,1-3.08-1.6L82.13,62.08A5.1,5.1,0,0,0,83.74,60Z"/></g></g></svg>